<?xml version="1.0" standalone="no"?><!DOCTYPE svg PUBLIC "-//W3C//DTD SVG 1.1//EN" "http://www.w3.org/Graphics/SVG/1.1/DTD/svg11.dtd"><svg width="100%" height="100%" viewBox="0 0 5582 2096" version="1.1" xmlns="http://www.w3.org/2000/svg" xmlns:xlink="http://www.w3.org/1999/xlink" xml:space="preserve" style="fill-rule:evenodd;clip-rule:evenodd;stroke-linejoin:round;stroke-miterlimit:1.41421;"><path d="M660.85,587.659l-468.75,0l0,468.75l-117.187,0l0,-937.5l117.187,0l0,351.563l468.75,0l0,-351.563l117.188,0l0,937.5l-117.188,0l0,-468.75Z" style="fill:#231f20;"/><path d="M2535.85,1056.41l-351.562,0l0,-117.187l351.562,0l0,117.187ZM2653.04,939.222l-117.188,0l0,-117.188l117.188,0l0,117.188ZM2184.29,939.222l-117.188,0l0,-117.188l117.188,0l0,117.188ZM2067.1,822.034l-117.187,0l0,-468.75l117.187,0l0,468.75ZM2653.04,353.284l-117.188,0l0,-117.187l117.188,0l0,117.187ZM2184.29,353.284l-117.188,0l0,-117.187l117.188,0l0,117.187ZM2535.85,236.097l-351.562,0l0,-117.188l351.562,0l0,117.188Z" style="fill:#231f20;"/><path d="M2887.41,470.472l117.187,0l0,234.375l-117.187,0l0,351.562l-117.201,0l0,-937.5l117.201,0l0,351.563ZM3356.16,1056.41l-117.188,0l0,-117.187l117.188,0l0,117.187ZM3238.97,939.222l-117.187,0l0,-117.188l117.187,0l0,117.188ZM3121.79,822.034l-117.188,0l0,-117.187l117.188,0l0,117.187ZM3121.79,470.472l-117.188,0l0,-117.188l117.188,0l0,117.188ZM3238.97,353.284l-117.187,0l0,-117.187l117.187,0l0,117.187ZM3356.16,236.097l-117.188,0l0,-117.188l117.188,0l0,117.188Z" style="fill:#231f20;"/><path d="M3473.35,118.909l117.188,0l0,820.313l468.75,0l0,117.187l-585.938,0l0,-937.5Z" style="fill:#231f20;"/><path d="M5348.35,1056.41l-468.75,0l0,-937.5l468.75,0l0,117.188l-351.562,0l0,234.375l351.562,0l0,117.187l-351.562,0l0,351.563l351.562,0l0,117.187ZM5465.54,939.222l-117.188,0l0,-351.563l117.188,0l0,351.563ZM5465.54,470.472l-117.188,0l0,-234.375l117.188,0l0,234.375Z" style="fill:#231f20;"/><path d="M4293.66,704.847l0,351.562l-117.188,0l0,-703.125l117.188,0l0,234.375l351.562,0l0,-234.375l117.188,0l0,703.125l-117.188,0l0,-351.562l-351.562,0ZM4410.85,353.284l-117.187,0l0,-117.187l117.187,0l0,117.187ZM4645.23,353.284l-117.187,0l0,-117.187l117.187,0l0,117.187ZM4528.04,236.097l-117.188,0l0,-117.188l117.188,0l0,117.188Z" style="fill:#231f20;"/><path d="M192.1,1290.78l117.188,0l0,117.188l-117.188,0l0,585.937l-117.187,0l0,-820.312l117.187,0l0,117.187ZM778.038,1407.97l-117.188,0l0,117.187l-117.187,0l0,-117.187l117.187,0l0,-117.188l117.188,0l0,-117.187l117.187,0l0,820.312l-117.187,0l0,-585.937ZM543.663,1642.35l-117.188,0l0,-117.188l117.188,0l0,117.188ZM426.475,1525.16l-117.187,0l0,-117.187l117.187,0l0,117.187Z" style="fill:#231f20;"/><rect x="1266.32" y="1173.6" width="117.188" height="820.313" style="fill:#231f20;"/><path d="M1871.79,1525.16l117.187,0l0,117.188l-117.187,0l0,351.562l-117.188,0l0,-820.312l117.188,0l0,351.562ZM2340.54,1993.91l-117.188,0l0,-117.187l117.188,0l0,117.187ZM2223.35,1876.72l-117.187,0l0,-117.188l117.187,0l0,117.188ZM2106.16,1759.53l-117.188,0l0,-117.187l117.188,0l0,117.187ZM2106.16,1525.16l-117.188,0l0,-117.187l117.188,0l0,117.187ZM2223.35,1407.97l-117.187,0l0,-117.188l117.187,0l0,117.188ZM2340.54,1290.78l-117.188,0l0,-117.187l117.188,0l0,117.187Z" style="fill:#231f20;"/><path d="M2828.82,1525.16l117.188,0l0,117.188l-117.188,0l0,351.562l-117.2,0l0,-820.312l117.2,0l0,351.562ZM3297.57,1993.91l-117.187,0l0,-117.187l117.187,0l0,117.187ZM3180.38,1876.72l-117.188,0l0,-117.188l117.188,0l0,117.188ZM3063.19,1759.53l-117.187,0l0,-117.187l117.187,0l0,117.187ZM3063.19,1525.16l-117.187,0l0,-117.187l117.187,0l0,117.187ZM3180.38,1407.97l-117.188,0l0,-117.188l117.188,0l0,117.188ZM3297.57,1290.78l-117.187,0l0,-117.187l117.187,0l0,117.187Z" style="fill:#231f20;"/><rect x="5348.35" y="1173.6" width="117.188" height="820.313" style="fill:#231f20;"/><path d="M4508.51,1173.6l117.187,0l0,703.125l351.563,0l0,117.187l-468.75,0l0,-820.312Z" style="fill:#231f20;"/><path d="M4020.22,1642.35l-234.375,0l0,234.375l351.563,0l0,117.187l-468.75,0l0,-820.312l468.75,0l0,117.187l-351.563,0l0,234.375l234.375,0l0,117.188Z" style="fill:#231f20;"/><path d="M1012.41,1056.41l-117.188,0l0,-117.187l117.188,0l0,117.187ZM1246.79,1056.41l-117.188,0l0,-117.187l117.188,0l0,117.187ZM1832.73,1056.41l-117.187,0l0,-117.187l117.187,0l0,117.187ZM1598.35,1056.41l-117.187,0l0,-117.187l117.187,0l0,117.187ZM1481.16,939.222l-234.375,0l0,-117.188l234.375,0l0,117.188ZM1129.6,939.222l-117.187,0l0,-117.188l117.187,0l0,117.188ZM1715.54,939.222l-117.188,0l0,-117.188l117.188,0l0,117.188ZM1129.6,353.284l0,-117.187l117.188,0l0,-117.188l234.375,0l0,117.188l117.187,0l0,117.187l234.375,0l0,117.188l-117.187,0l0,117.187l117.187,0l0,117.188l-234.375,0l0,117.187l-117.187,0l0,-117.187l-234.375,0l0,117.187l-117.188,0l0,-117.187l-234.375,0l0,-117.188l117.188,0l0,-117.187l-117.188,0l0,-117.188l234.375,0ZM1598.35,470.472l-117.187,0l0,117.187l117.187,0l0,-117.187ZM1129.6,470.472l0,117.187l117.188,0l0,-117.187l-117.188,0Z" style="fill:#ec008c;"/></svg>